<?xml version="1.0" standalone="no"?>
<!DOCTYPE svg PUBLIC "-//W3C//DTD SVG 20010904//EN"
 "http://www.w3.org/TR/2001/REC-SVG-20010904/DTD/svg10.dtd">
<svg version="1.0" xmlns="http://www.w3.org/2000/svg"
 width="491.000000pt" height="384.000000pt" viewBox="0 0 491.000000 384.000000"
 preserveAspectRatio="xMidYMid meet">

<g transform="translate(0.000000,384.000000) scale(0.100000,-0.100000)"
fill="#000000" stroke="none">
<path d="M2631 3448 c-56 -28 -95 -88 -111 -174 -32 -166 42 -274 199 -290 49
-6 67 -3 105 15 53 26 99 88 75 102 -8 4 -23 14 -33 22 -18 13 -22 12 -41 -17
-42 -62 -156 -58 -195 7 -27 43 -27 146 -1 203 24 53 55 74 109 74 42 0 102
-23 102 -38 0 -5 6 -16 13 -26 12 -17 16 -17 49 -3 30 13 36 19 31 37 -9 35
-65 85 -110 98 -63 19 -142 15 -192 -10z"/>
<path d="M2040 3450 c-71 -12 -110 -51 -110 -108 0 -36 20 -81 44 -101 14 -12
13 -17 -14 -47 -16 -19 -33 -46 -36 -59 -18 -71 38 -157 110 -171 47 -8 137
11 168 36 18 14 34 17 80 12 46 -4 59 -2 64 11 9 24 -14 57 -40 57 -24 0 -24
1 -19 79 6 85 2 94 -43 85 -28 -5 -29 -7 -25 -61 l3 -56 -62 54 -61 53 26 19
c57 42 71 116 30 165 -27 32 -60 41 -115 32z m48 -72 c20 -20 14 -63 -12 -87
l-24 -22 -21 29 c-25 36 -26 55 -5 76 18 19 45 21 62 4z m37 -273 c39 -34 39
-36 21 -50 -31 -23 -83 -19 -111 10 -27 26 -34 82 -13 103 12 12 30 2 103 -63z"/>
<path d="M2976 3127 c-31 -89 -56 -167 -56 -173 0 -7 11 -15 24 -18 13 -3 31
-8 38 -11 11 -4 23 19 47 90 42 122 60 145 111 145 21 0 42 -4 45 -10 10 -16
19 -11 38 21 21 37 12 54 -35 63 -20 4 -39 1 -54 -9 -32 -20 -35 -19 -32 11 3
23 -3 29 -34 39 l-36 13 -56 -161z"/>
<path d="M1515 3134 c-39 -20 -83 -62 -101 -96 -18 -36 -19 -35 15 -53 30 -15
30 -15 52 24 27 50 80 81 103 62 27 -23 18 -45 -44 -104 -55 -51 -60 -60 -60
-98 0 -33 6 -47 34 -75 39 -39 69 -43 124 -15 36 18 62 55 62 87 0 11 4 12 19
4 30 -15 66 -12 92 9 22 17 22 21 10 45 -11 19 -20 24 -36 20 -20 -5 -28 5
-65 73 -60 109 -84 133 -134 133 -23 0 -54 -7 -71 -16z m140 -174 c8 -16 15
-40 15 -54 0 -48 -67 -85 -98 -54 -23 23 -13 61 26 99 20 21 38 38 39 38 1 1
9 -12 18 -29z"/>
<path d="M3292 3143 c-16 -3 -22 -10 -18 -20 3 -8 6 -22 6 -32 0 -14 9 -17 48
-17 77 1 130 -48 88 -83 -11 -10 -32 -7 -93 9 -92 25 -122 19 -153 -32 -23
-37 -25 -69 -9 -101 28 -51 98 -80 145 -58 22 10 24 8 24 -15 0 -30 41 -74 70
-74 24 0 53 51 32 58 -21 7 -13 35 34 117 55 96 61 140 24 180 -47 51 -136 81
-198 68z m65 -206 l32 -12 -20 -33 c-12 -17 -33 -35 -47 -39 -53 -13 -103 45
-72 83 15 17 62 17 107 1z"/>
<path d="M3725 3028 c-11 -6 -30 -22 -41 -37 -19 -22 -24 -24 -38 -12 -14 12
-20 11 -41 -9 -25 -23 -25 -24 -6 -44 20 -21 19 -21 -70 -130 -87 -106 -89
-110 -72 -128 40 -45 45 -42 129 59 43 53 84 103 90 111 10 14 17 11 53 -17
23 -19 43 -32 44 -30 1 2 11 14 21 27 19 22 19 22 -19 55 -27 24 -37 38 -32
50 14 38 80 33 98 -7 11 -23 12 -23 40 -7 16 9 29 20 29 24 0 20 -37 60 -75
82 -45 27 -78 31 -110 13z"/>
<path d="M1198 2927 c-34 -29 -48 -58 -48 -101 0 -34 -1 -35 -29 -30 -58 12
-131 -54 -131 -120 0 -28 -1 -28 -18 -13 -17 16 -20 15 -47 -13 l-29 -31 127
-126 126 -127 31 29 30 29 -80 81 c-43 45 -84 94 -90 109 -16 43 18 96 62 96
6 0 54 -43 108 -95 l96 -95 29 30 28 29 -81 85 c-91 95 -105 124 -75 164 37
50 57 42 159 -59 l94 -94 30 31 30 30 -108 107 c-101 99 -112 107 -148 107
-26 0 -48 -8 -66 -23z"/>
<path d="M3903 2798 c-21 -20 -23 -21 -41 -5 -24 22 -35 21 -57 -3 -17 -19
-17 -21 0 -40 18 -19 16 -22 -69 -102 -83 -80 -86 -85 -86 -127 0 -37 6 -49
39 -82 45 -46 73 -50 90 -13 10 23 9 28 -14 46 -41 32 -32 57 46 127 l70 64
38 -37 37 -36 22 23 22 23 -31 38 -32 37 29 30 28 30 -29 24 c-37 30 -36 30
-62 3z"/>
<path d="M2250 2654 c-125 -15 -238 -37 -306 -58 -142 -45 -222 -115 -208
-181 3 -16 7 -35 7 -42 1 -6 -14 -22 -33 -35 -44 -30 -89 -110 -90 -163 0 -22
-7 -51 -15 -65 -32 -55 -10 -138 50 -188 l32 -27 26 -220 c24 -203 25 -221 10
-232 -21 -17 -21 -28 27 -435 30 -262 43 -345 56 -359 12 -13 24 -79 45 -251
33 -266 24 -247 144 -297 250 -105 679 -103 899 5 102 50 102 51 134 295 23
175 32 220 50 244 18 25 28 83 67 375 38 285 44 348 34 367 -10 19 -7 63 17
245 l29 223 47 43 c74 69 82 107 42 217 -47 134 -59 158 -95 186 -37 29 -37
31 -32 83 5 49 3 55 -27 90 -94 107 -353 175 -690 181 -102 2 -201 1 -220 -1z
m545 -52 c238 -52 375 -127 375 -206 0 -26 -47 -71 -102 -99 -52 -26 -196 -70
-270 -82 -24 -4 -38 -11 -38 -21 0 -17 20 -15 155 16 94 22 167 51 213 87 18
14 36 23 38 20 3 -3 8 -30 11 -61 5 -50 3 -60 -18 -83 -49 -53 -193 -105 -374
-134 -103 -17 -442 -17 -560 -1 -217 30 -393 90 -460 158 l-34 34 26 56 c17
38 23 64 18 82 -16 68 -16 81 0 106 36 54 216 121 391 145 38 5 175 8 304 6
187 -2 253 -7 325 -23z m-1080 -326 c-31 -47 13 -110 114 -160 163 -83 367
-119 666 -120 222 -1 305 8 462 49 183 48 276 124 253 206 l-9 34 25 -29 c65
-74 -24 -180 -198 -236 -75 -24 -92 -46 -29 -37 82 11 215 86 251 141 l20 31
0 -31 c0 -72 -100 -154 -242 -198 -37 -12 -68 -25 -68 -31 -2 -33 137 5 222
61 29 20 66 53 82 75 31 41 46 38 46 -9 1 -133 -277 -247 -665 -272 -519 -32
-1042 122 -1023 302 l4 33 19 -37 c10 -21 25 -38 32 -38 17 0 17 6 -7 68 -29
76 -26 91 10 52 24 -26 34 -30 43 -21 9 9 7 16 -9 29 -52 41 -60 114 -17 156
31 32 42 20 18 -18z m71 -436 c131 -61 318 -102 561 -121 257 -21 583 17 767
89 44 17 82 30 84 28 3 -4 -41 -350 -55 -425 -7 -42 -47 -61 -191 -91 -284
-57 -764 -37 -1047 45 -152 44 -137 22 -162 235 -11 102 -24 204 -27 228 -3
23 -3 42 1 42 3 0 34 -13 69 -30z m3 -470 c59 -23 218 -63 311 -79 196 -32
547 -42 732 -21 113 14 239 44 292 70 l39 19 -6 -47 c-35 -281 -79 -593 -88
-620 -31 -93 -218 -150 -529 -159 -310 -10 -604 43 -698 125 l-31 27 -36 320
c-19 176 -38 335 -41 353 -3 17 -3 32 0 32 3 0 28 -9 55 -20z m177 -801 c142
-50 252 -63 514 -63 206 0 248 3 340 23 57 12 126 32 152 43 27 11 51 19 53
16 3 -3 -7 -92 -21 -199 -28 -218 -28 -218 -119 -263 -74 -38 -180 -64 -317
-78 -208 -20 -471 20 -609 94 -33 17 -59 34 -59 37 0 3 -11 94 -25 201 -30
237 -30 234 -7 224 9 -4 53 -20 98 -35z"/>
<path d="M2110 2537 c-133 -40 -178 -92 -126 -146 55 -57 237 -98 484 -108
137 -6 152 -4 152 10 0 15 -12 17 -84 17 -174 0 -391 32 -480 70 -49 21 -69
42 -60 63 8 22 96 63 167 78 35 7 57 17 57 26 0 18 -22 16 -110 -10z"/>
<path d="M2570 2550 c0 -10 32 -16 132 -25 78 -6 178 -35 226 -65 26 -16 33
-26 30 -47 -4 -33 -46 -60 -132 -83 -62 -17 -75 -37 -21 -32 94 8 185 63 185
112 0 61 -69 105 -212 134 -85 18 -208 21 -208 6z"/>
<path d="M1860 2399 c-17 -30 10 -64 66 -83 58 -20 64 -20 64 -2 0 14 -68 78
-102 97 -13 7 -20 4 -28 -12z"/>
<path d="M1856 2313 c-13 -14 -4 -23 50 -48 97 -46 284 -77 529 -89 118 -6
232 3 228 18 -2 5 -83 10 -180 12 -251 3 -476 39 -582 94 -21 10 -41 16 -45
13z"/>
<path d="M1806 2062 c-22 -21 35 -48 164 -80 174 -43 303 -56 545 -57 233 0
322 11 312 38 -4 13 -7 13 -107 -4 -86 -15 -422 -5 -560 16 -125 19 -249 50
-307 75 -23 10 -44 16 -47 12z"/>
<path d="M803 2440 c-68 -41 -107 -142 -83 -214 26 -79 156 -149 238 -126 70
18 132 108 132 190 -1 79 -110 170 -205 170 -32 0 -61 -7 -82 -20z m123 -79
c45 -21 84 -63 84 -93 0 -33 -29 -77 -56 -84 -64 -16 -164 50 -164 108 0 34
47 88 77 88 10 0 36 -9 59 -19z"/>
<path d="M4069 2386 c-71 -29 -106 -56 -141 -108 -71 -104 -5 -286 113 -318
68 -19 84 -12 87 39 3 41 2 43 -19 38 -58 -15 -129 53 -129 125 0 73 112 158
209 158 36 0 49 -6 76 -33 20 -20 36 -48 40 -71 7 -34 4 -46 -23 -97 -1 -4 13
-16 33 -28 l36 -21 19 33 c53 87 -17 256 -123 296 -46 18 -118 12 -178 -13z"/>
<path d="M622 2125 c-16 -34 -15 -57 3 -81 21 -27 19 -33 -11 -31 -22 2 -29
-4 -39 -33 l-12 -35 166 -57 c91 -31 169 -57 172 -57 9 -1 29 73 21 80 -4 4
-38 17 -77 29 -145 47 -178 79 -151 144 13 32 13 34 -14 50 -38 22 -45 20 -58
-9z"/>
<path d="M4160 1939 c-116 -35 -161 -144 -104 -256 41 -84 115 -110 220 -78
31 9 63 28 84 50 31 32 35 42 38 103 5 112 -48 180 -149 187 -30 2 -70 0 -89
-6z m145 -104 c66 -65 -2 -155 -117 -155 -42 0 -80 39 -81 82 -2 62 45 95 136
97 28 1 45 -6 62 -24z"/>
<path d="M635 1765 l-240 -51 -6 -30 c-4 -16 -7 -43 -8 -59 -1 -30 4 -32 223
-142 l224 -112 6 31 c11 57 8 64 -45 88 l-51 24 6 61 c13 115 16 125 45 131
85 17 86 17 92 62 3 24 3 44 0 46 -3 1 -114 -21 -246 -49z m39 -142 c-3 -32
-8 -61 -10 -65 -5 -8 -184 72 -184 82 0 7 137 37 178 39 23 1 23 -1 16 -56z"/>
<path d="M4083 1504 c-15 -24 -15 -29 -2 -53 28 -49 99 -32 99 24 0 55 -67 75
-97 29z"/>
</g>
</svg>
